<?xml version="1.0" encoding="utf-8"?>
<!-- Generator: Adobe Illustrator 27.7.0, SVG Export Plug-In . SVG Version: 6.00 Build 0)  -->
<svg version="1.1" xmlns="http://www.w3.org/2000/svg" xmlns:xlink="http://www.w3.org/1999/xlink" x="0px" y="0px"
	 viewBox="0 0 48 48" style="enable-background:new 0 0 48 48;" xml:space="preserve">
<style type="text/css">
	.st0{display:none;fill:#FFCEA9;}
	.st1{fill:#381300;}
	.st2{fill:#F8EDDE;}
</style>
<g id="Слой_1">
	<g>
		<path class="st1" d="M43.26,48.1H4.74C2.12,48.1,0,45.98,0,43.36V4.85C0,2.23,2.12,0.1,4.74,0.1h38.51C45.88,0.1,48,2.23,48,4.85
			v38.51C48,45.98,45.88,48.1,43.26,48.1z"/>
		<g>
			<g>
				<polygon class="st2" points="36.03,11.83 36.03,22.71 33.17,13.32 33.17,13.31 				"/>
				<polygon class="st2" points="35.58,11.12 32.75,12.59 26.26,5.74 				"/>
				<g>
					<polygon class="st2" points="35.23,25.72 24.41,31.97 24.41,28.63 					"/>
				</g>
				<g>
					<polygon class="st2" points="23.58,28.67 23.58,31.97 12.42,25.02 19.46,27.47 					"/>
				</g>
				<g>
					<polygon class="st2" points="14.83,13.31 14.83,13.32 11.97,22.71 11.97,11.83 					"/>
				</g>
				<g>
					<polygon class="st2" points="21.72,5.75 15.25,12.59 12.42,11.12 					"/>
				</g>
				<polygon class="st2" points="31.69,12.69 16.29,12.69 24,4.57 				"/>
				<path class="st2" d="M16.05,13.52L24,27.29l7.95-13.77H16.05z M23.84,20.78h-2.67v-0.76l1.55-2.03
					c0.07-0.09,0.12-0.18,0.16-0.28c0.04-0.1,0.06-0.18,0.06-0.27v-0.01c0-0.12-0.03-0.22-0.12-0.28c-0.07-0.07-0.19-0.1-0.33-0.1
					c-0.14,0-0.26,0.04-0.34,0.14c-0.09,0.09-0.14,0.22-0.16,0.39h-0.87c0.02-0.28,0.08-0.52,0.2-0.73c0.12-0.2,0.27-0.36,0.47-0.46
					c0.2-0.11,0.43-0.17,0.69-0.17c0.28,0,0.52,0.05,0.72,0.14c0.2,0.09,0.35,0.22,0.46,0.4c0.1,0.17,0.16,0.39,0.16,0.64
					c0,0.21-0.04,0.41-0.11,0.61c-0.07,0.2-0.17,0.38-0.3,0.55l-1.11,1.4h1.54V20.78z M26.86,20.49c-0.22,0.22-0.56,0.34-1,0.34
					c-0.44,0-0.77-0.12-1-0.34c-0.22-0.22-0.34-0.54-0.34-0.94v-2.05c0-0.41,0.12-0.72,0.35-0.95c0.22-0.22,0.56-0.34,0.99-0.34
					c0.45,0,0.78,0.12,1.01,0.34c0.22,0.22,0.34,0.53,0.34,0.95v2.05C27.21,19.95,27.1,20.27,26.86,20.49z"/>
				<polygon class="st2" points="35.74,24.65 24.71,27.72 32.55,14.15 				"/>
				<g>
					<polygon class="st2" points="23.3,27.75 12.42,24.27 15.45,14.15 20.53,22.95 					"/>
				</g>
			</g>
			<path class="st2" d="M26.37,17.72v1.61c0,0.22-0.04,0.39-0.12,0.51c-0.08,0.12-0.21,0.17-0.38,0.17c-0.17,0-0.29-0.06-0.37-0.17
				c-0.08-0.12-0.12-0.28-0.12-0.51v-1.61c0-0.22,0.04-0.39,0.12-0.51c0.08-0.12,0.21-0.17,0.37-0.17c0.17,0,0.3,0.06,0.38,0.17
				C26.33,17.33,26.37,17.5,26.37,17.72z"/>
		</g>
	</g>
	<g>
		<path class="st2" d="M6.71,42.32H6.5c-0.43,0-0.78-0.35-0.78-0.78v-4.79c0-0.43,0.35-0.78,0.78-0.78h0.21
			c0.43,0,0.78,0.35,0.78,0.78v4.79C7.49,41.97,7.14,42.32,6.71,42.32z"/>
		<path class="st2" d="M10.24,42.32h-0.21c-0.43,0-0.78-0.35-0.78-0.78v-8.13c0-0.43,0.35-0.78,0.78-0.78h0.21
			c0.43,0,0.78,0.35,0.78,0.78v8.13C11.02,41.97,10.67,42.32,10.24,42.32z"/>
		<path class="st2" d="M13.77,42.32h-0.21c-0.43,0-0.78-0.35-0.78-0.78V30.4c0-0.43,0.35-0.78,0.78-0.78h0.21
			c0.43,0,0.78,0.35,0.78,0.78v11.14C14.55,41.97,14.2,42.32,13.77,42.32z"/>
		<path class="st2" d="M17.08,42.32h-0.21c-0.43,0-0.78-0.35-0.78-0.78v-6.98c0-0.43,0.35-0.78,0.78-0.78h0.21
			c0.43,0,0.78,0.35,0.78,0.78v6.98C17.86,41.97,17.51,42.32,17.08,42.32z"/>
		<path class="st2" d="M20.39,42.32h-0.21c-0.43,0-0.78-0.35-0.78-0.78v-3.29c0-0.43,0.35-0.78,0.78-0.78h0.21
			c0.43,0,0.78,0.35,0.78,0.78v3.29C21.16,41.97,20.82,42.32,20.39,42.32z"/>
		<path class="st2" d="M23.88,42.32h-0.21c-0.43,0-0.78-0.35-0.78-0.78v-2c0-0.43,0.35-0.78,0.78-0.78h0.21
			c0.43,0,0.78,0.35,0.78,0.78v2C24.66,41.97,24.31,42.32,23.88,42.32z"/>
		<path class="st2" d="M27.36,42.32h-0.21c-0.43,0-0.78-0.35-0.78-0.78v-4.15c0-0.43,0.35-0.78,0.78-0.78h0.21
			c0.43,0,0.78,0.35,0.78,0.78v4.15C28.13,41.97,27.78,42.32,27.36,42.32z"/>
		<path class="st2" d="M30.96,42.32h-0.21c-0.43,0-0.78-0.35-0.78-0.78v-1.62c0-0.43,0.35-0.78,0.78-0.78h0.21
			c0.43,0,0.78,0.35,0.78,0.78v1.62C31.74,41.97,31.39,42.32,30.96,42.32z"/>
		<path class="st2" d="M34.5,42.32h-0.21c-0.43,0-0.78-0.35-0.78-0.78v-6c0-0.43,0.35-0.78,0.78-0.78h0.21
			c0.43,0,0.78,0.35,0.78,0.78v6C35.28,41.97,34.93,42.32,34.5,42.32z"/>
		<path class="st2" d="M37.98,42.32h-0.21c-0.43,0-0.78-0.35-0.78-0.78v-9.12c0-0.43,0.35-0.78,0.78-0.78h0.21
			c0.43,0,0.78,0.35,0.78,0.78v9.12C38.76,41.97,38.41,42.32,37.98,42.32z"/>
		<path class="st2" d="M41.5,42.32h-0.21c-0.43,0-0.78-0.35-0.78-0.78V29.26c0-0.43,0.35-0.78,0.78-0.78h0.21
			c0.43,0,0.78,0.35,0.78,0.78v12.28C42.28,41.97,41.93,42.32,41.5,42.32z"/>
	</g>
</g>
<g id="Слой_6">
</g>
<g id="Слой_5">
</g>
<g id="Слой_2">
</g>
<g id="Слой_3">
</g>
<g id="Слой_4">
</g>
</svg>
